# Blender v2.76 (sub 0) OBJ File: 'echiquier.blend'
# www.blender.org
mtllib echiquier.mtl
o Cube
v 3.962187 2.282744 -3.962187
v 3.962187 2.282744 3.962187
v -3.962188 2.282744 3.962186
v -3.962186 2.282744 -3.962189
v 3.962189 2.779352 -3.962185
v 3.962185 2.779352 3.962189
v -3.962189 2.779352 3.962186
v -3.962187 2.779352 -3.962187
v -2.106641 2.282744 -3.962189
v -2.035222 2.282744 3.962186
v -3.024772 2.779352 -3.962187
v -3.024775 2.779352 3.962186
v 2.035630 2.282744 -3.962188
v 1.964209 2.282744 3.962187
v 2.953762 2.779352 -3.962185
v 2.953758 2.779352 3.962189
v 3.962187 2.282744 -2.199892
v -3.962186 2.282744 -2.192596
v 3.962188 2.779352 -2.989587
v -3.962187 2.779352 -2.989589
v -3.024772 2.779352 -2.989589
v -2.106642 2.282744 -2.192596
v 2.035630 2.282744 -2.199893
v 2.953761 2.779352 -2.989587
v 3.962187 2.282744 2.182166
v 3.962185 2.779352 2.971864
v -3.024774 2.779352 2.971861
v 2.953758 2.779352 2.971864
v -3.962188 2.282744 2.174867
v -3.962189 2.779352 2.971861
v -2.035222 2.282744 2.174867
v 1.964209 2.282744 2.182166
v 3.962188 2.077312 2.971861
v 3.962188 2.077312 3.962186
v -3.024771 2.077312 -3.962189
v -3.962186 2.077312 -3.962189
v -3.024773 2.077312 3.962186
v -3.962188 2.077312 3.962186
v -3.962186 2.077312 -2.989590
v -3.024771 2.077312 -2.989590
v 3.962187 2.077312 -3.962187
v 2.953760 2.077312 -3.962188
v 2.953760 2.077312 3.962187
v 2.953760 2.077312 -2.989589
v 3.962187 2.077312 -2.989589
v -3.962188 2.077312 2.971861
v -3.024773 2.077312 2.971861
v 2.953760 2.077312 2.971862
v 4.214294 1.781475 2.724280
v 4.214294 1.781475 4.209767
v -2.790418 1.781475 -4.205338
v -4.196539 1.781475 -4.205338
v -2.790420 1.781475 4.209767
v -4.196542 1.781475 4.209767
v -4.196539 1.781475 -2.746441
v -2.790418 1.781475 -2.746441
v 4.214294 1.781475 -4.205337
v 2.701653 1.781475 -4.205338
v 2.701653 1.781475 4.209768
v 2.701653 1.781475 -2.746439
v 4.214294 1.781475 -2.746439
v -4.196541 1.781475 2.724280
v -2.790419 1.781475 2.724280
v 2.701653 1.781475 2.724281
v -4.196539 1.369569 -4.205338
v -2.790418 1.369569 -4.205338
v 4.214294 1.369569 4.209767
v 4.214294 1.369569 2.724280
v -2.790420 1.369569 4.209767
v -4.196542 1.369569 4.209767
v -4.196539 1.369569 -2.746441
v -2.790418 1.369569 -2.746441
v 4.214294 1.369569 -4.205337
v 2.701653 1.369569 -4.205338
v 2.701653 1.369569 4.209768
v 2.701653 1.369569 -2.746439
v 4.214294 1.369569 -2.746439
v -4.196541 1.369569 2.724280
v -2.790419 1.369569 2.724280
v 2.701653 1.369569 2.724281
v 3.079814 0.979343 -3.111164
v 3.079814 0.979343 -3.840613
v 3.836134 0.979343 3.838396
v 3.079813 0.979343 3.838396
v 3.836134 0.979343 -3.840613
v -3.141948 0.979343 -3.111165
v -3.141948 0.979343 -3.840614
v -3.845009 0.979343 -3.111165
v -3.845009 0.979343 -3.840614
v -3.141950 0.979343 3.838396
v -3.845011 0.979343 3.838396
v 3.836134 0.979343 3.095652
v 3.836134 0.979343 -3.111164
v -3.845011 0.979343 3.095652
v -3.141950 0.979343 3.095652
v 3.079813 0.979343 3.095653
v 3.079814 0.006186 -3.111164
v 3.079814 0.006186 -3.840613
v 3.836134 0.006186 3.838396
v 3.079813 0.006186 3.838396
v 3.836134 0.006186 -3.840613
v -3.141948 0.006186 -3.111165
v -3.141948 0.006186 -3.840614
v -3.845009 0.006186 -3.111165
v -3.845009 0.006186 -3.840614
v -3.141950 0.006186 3.838396
v -3.845011 0.006186 3.838396
v 3.836134 0.006186 3.095652
v 3.836134 0.006186 -3.111164
v -3.845011 0.006186 3.095652
v -3.141950 0.006186 3.095652
v 3.079813 0.006186 3.095653
v -0.035506 2.533055 -3.962188
v -0.035506 2.533055 3.962187
v -0.035505 2.779352 -3.962186
v -0.035508 2.779352 3.962187
v -0.035506 2.533055 -2.989590
v -0.035506 2.779352 -2.989588
v -0.035506 2.533055 2.971862
v -0.035508 2.779352 2.971863
v -3.962187 2.533055 -0.008864
v -3.962188 2.779352 -0.008864
v -3.024772 2.533055 -0.008864
v 2.953760 2.533055 -0.008863
v 3.962187 2.533055 -0.008863
v 3.962187 2.779352 -0.008861
v -3.024773 2.779352 -0.008864
v 2.953760 2.779352 -0.008862
v -0.035507 2.779352 -0.008862
v -0.035506 2.282744 -0.008864
vt 0.500004 0.877476
vt 0.584333 0.877476
vt 0.546729 0.903092
vt 0.500004 0.903092
vt 0.042127 0.877476
vt 0.079387 0.815550
vt 0.126113 0.815550
vt 0.126113 0.877476
vt 0.409085 0.877475
vt 0.455775 0.815551
vt 0.500004 0.815551
vt 0.790399 0.877476
vt 0.828003 0.815552
vt 0.873892 0.815552
vt 0.873892 0.877476
vt 0.918121 0.815552
vt 0.961440 0.877477
vt 1.059160 0.815552
vt 1.059160 0.846264
vt 0.314735 0.846263
vt 0.314735 0.815550
vt 0.086960 0.296121
vt 0.040447 0.296114
vt 0.040359 0.191292
vt 0.124759 0.190714
vt 0.455775 0.903092
vt 0.173693 0.815550
vt 0.220383 0.877476
vt 1.247782 0.815551
vt 1.247782 0.877477
vt 1.156882 0.877477
vt 1.200202 0.815552
vt 0.124391 0.401546
vt 0.125047 0.506039
vt 0.086763 0.506360
vt 0.086405 0.453925
vt 0.415740 0.296148
vt 0.370053 0.296147
vt 0.332302 0.186979
vt 0.415872 0.187637
vt 0.687366 0.846263
vt 0.687366 0.815551
vt -0.247782 0.877477
vt -0.247782 0.815551
vt -0.201891 0.815551
vt -0.164631 0.877477
vt 0.332638 0.405319
vt 0.415870 0.404662
vt 0.416254 0.453588
vt 0.370618 0.454028
vt 0.546729 0.815551
vt 0.228485 0.505896
vt 0.228497 0.453420
vt 0.228512 0.296139
vt 0.228521 0.138865
vt -0.061251 0.846263
vt -0.061251 0.815550
vt 0.125411 0.089924
vt 0.228517 0.090084
vt 0.987022 0.796602
vt 0.922449 0.796602
vt 0.922449 0.757475
vt 0.987022 0.757475
vt 0.900846 0.536607
vt 0.843654 0.536607
vt 0.843654 0.497339
vt 0.900846 0.497339
vt 0.816426 0.538734
vt 0.740368 0.538734
vt 0.740368 0.502416
vt 0.816426 0.502416
vt 0.865747 0.796602
vt 0.806922 0.796602
vt 0.806922 0.757475
vt 0.865747 0.757475
vt 0.370619 0.138275
vt 0.416254 0.138712
vt 0.873892 0.903093
vt 0.828003 0.903093
vt 1.247782 0.903093
vt 1.200202 0.903094
vt 0.039982 0.138735
vt 0.086451 0.138325
vt -0.201891 0.903094
vt -0.247782 0.903094
vt 0.331632 0.089902
vt 0.370244 0.089537
vt 0.173693 0.903093
vt 0.126113 0.903093
vt 0.040330 0.400937
vt 0.039935 0.453496
vt 0.086799 0.089586
vt 0.079387 0.903093
vt 0.331932 0.506101
vt 0.370215 0.506462
vt 0.918121 0.903093
vt 0.900846 0.451940
vt 0.843654 0.451940
vt 0.843654 0.408356
vt 0.900846 0.408356
vt 0.933765 0.499320
vt 0.876451 0.499320
vt 0.876451 0.456807
vt 0.933765 0.456807
vt 1.008662 0.502416
vt 0.934147 0.502416
vt 0.934147 0.463606
vt 1.008662 0.463606
vt 1.003008 0.499320
vt 1.003008 0.456807
vt 0.786009 0.536607
vt 0.786009 0.497339
vt 0.736077 0.796602
vt 0.736077 0.757475
vt 0.976006 0.536607
vt 0.976006 0.497339
vt 0.934147 0.538734
vt 0.873480 0.538734
vt 0.873480 0.502416
vt 0.813531 0.538438
vt 0.741185 0.538438
vt 0.741185 0.499320
vt 0.813531 0.499320
vt 0.876451 0.538438
vt 1.003008 0.538438
vt 0.933765 0.538438
vt 1.008662 0.538734
vt 0.715790 0.536607
vt 0.715790 0.497339
vt 0.976006 0.451940
vt 0.976006 0.408356
vt 0.922449 0.711026
vt 0.865747 0.711026
vt 0.865747 0.667752
vt 0.922449 0.667752
vt 0.786009 0.451940
vt 0.786009 0.408356
vt 0.813531 0.456807
vt 0.715790 0.451940
vt 0.816426 0.463606
vt 0.873480 0.463606
vt 0.806922 0.711026
vt 0.740368 0.463606
vt 0.987022 0.711026
vt 0.736077 0.711026
vt 0.741185 0.456807
vt 0.806922 0.667752
vt 0.736077 0.667752
vt 0.736077 0.569295
vt 0.806922 0.569295
vt 0.987022 0.667752
vt 0.922449 0.569295
vt 0.987022 0.569295
vt 0.934147 0.411264
vt 0.873480 0.411264
vt 0.873480 0.315418
vt 0.934147 0.315418
vt 0.816426 0.411264
vt 0.740368 0.411264
vt 0.740368 0.315418
vt 0.816426 0.315418
vt 0.741185 0.414321
vt 0.813531 0.414321
vt 0.933765 0.414321
vt 1.003008 0.414321
vt 0.876451 0.414321
vt 1.008662 0.411264
vt 0.715790 0.408356
vt 0.647743 0.767305
vt 0.613326 0.767305
vt 0.613326 0.679636
vt 0.647743 0.679636
vt 0.617263 0.579557
vt 0.652307 0.579557
vt 0.652307 0.667226
vt 0.617263 0.667226
vt 0.712007 0.578556
vt 0.712007 0.669515
vt 0.676322 0.669515
vt 0.676322 0.578556
vt 0.704132 0.674328
vt 0.704132 0.766946
vt 0.668447 0.766946
vt 0.668447 0.674329
vt 0.786009 0.310931
vt 0.843654 0.310931
vt 0.865747 0.569295
vt 0.900846 0.310931
vt 0.976006 0.310931
vt 0.741185 0.319035
vt 0.813531 0.319035
vt 0.933765 0.319035
vt 1.003008 0.319035
vt 0.876451 0.319035
vt 1.008662 0.315418
vt 0.715790 0.310931
vt 0.172027 0.204409
vt 0.097991 0.204384
vt 0.098018 0.126169
vt 0.172054 0.126194
vt 0.393603 0.199048
vt 0.393630 0.120833
vt 0.707523 0.201878
vt 0.627878 0.201851
vt 0.627905 0.123636
vt 0.707550 0.123664
vt 0.714591 0.742266
vt 0.634946 0.742239
vt 0.634973 0.665424
vt 0.714617 0.665451
vt 0.393414 0.746693
vt 0.164182 0.742040
vt 0.164209 0.665225
vt 0.393441 0.669878
vt 0.090146 0.740872
vt 0.090172 0.665199
vt 0.709256 0.434572
vt 0.629611 0.434545
vt 0.393522 0.434463
vt 0.169225 0.436196
vt 0.089746 0.434356
vn -1.000000 -0.000000 -0.000000
vn 1.000000 0.000000 0.000000
vn -0.000000 0.000000 1.000000
vn 0.000000 0.000000 -1.000000
vn 0.124200 -0.992300 0.000000
vn -0.000000 -0.967800 -0.251800
vn 0.120000 -0.992800 -0.000000
vn -0.218400 -0.975900 0.000000
vn 0.000000 -0.993500 -0.113500
vn -0.000000 -1.000000 0.000000
vn 0.000000 -0.993500 -0.113900
vn 0.000000 0.635000 0.772500
vn 0.000000 0.641800 0.766900
vn 0.000000 0.635000 -0.772500
vn 0.218400 -0.975900 -0.000000
vn 0.203300 -0.979100 -0.000000
vn 0.000000 -0.968300 0.249600
vn -0.203300 -0.979100 0.000000
vn 0.000000 -0.968300 -0.249600
vn -0.000000 -0.967800 0.251800
vn 0.000000 -0.689400 0.724400
vn -0.783900 0.620900 -0.000000
vn 0.783900 0.620900 0.000000
vn -0.761100 0.648600 0.000000
vn -0.000000 0.641800 -0.766900
vn 0.761100 0.648600 -0.000000
vn 0.743000 -0.669300 0.000000
vn -0.743000 -0.669300 -0.000000
vn -0.718100 -0.695900 0.000000
vn 0.000000 -0.682800 -0.730600
vn -0.000000 -0.689400 -0.724400
vn 0.718100 -0.695900 0.000000
vn 0.000000 -0.682800 0.730600
vn -0.120000 -0.992800 0.000000
vn -0.124200 -0.992300 0.000000
vn 0.000000 -0.993500 0.113900
vn -0.000000 -0.993500 0.113500
vn 0.000000 1.000000 0.000000
usemtl Material
s off
f 3/1/1 29/2/1 46/3/1 38/4/1
f 25/5/2 26/6/2 6/7/2 2/8/2
f 10/9/3 12/10/3 7/11/3 3/1/3
f 18/12/1 20/13/1 8/14/1 4/15/1
f 11/16/4 9/17/4 4/15/4 8/14/4
f 115/18/4 113/19/4 9/17/4 11/16/4
f 114/20/3 116/21/3 12/10/3 10/9/3
f 119/22/5 114/23/5 10/24/5 31/25/5
f 10/9/3 3/1/3 38/4/3 37/26/3
f 2/8/3 6/7/3 16/27/3 14/28/3
f 5/29/4 1/30/4 13/31/4 15/32/4
f 32/33/6 25/34/6 33/35/6 48/36/6
f 113/37/7 117/38/7 22/39/7 9/40/7
f 121/41/1 122/42/1 20/13/1 18/12/1
f 1/43/2 5/44/2 19/45/2 17/46/2
f 23/47/8 13/48/8 42/49/8 44/50/8
f 3/1/1 7/11/1 30/51/1 29/2/1
f 125/52/9 25/34/9 32/33/9 124/53/9
f 130/54/10 119/22/10 31/25/10 123/55/10
f 125/56/2 126/57/2 26/6/2 25/5/2
f 123/55/11 31/25/11 29/58/11 121/59/11
f 40/60/12 39/61/12 55/62/12 56/63/12
f 37/64/13 38/65/13 54/66/13 53/67/13
f 45/68/12 44/69/12 60/70/12 61/71/12
f 36/72/14 35/73/14 51/74/14 52/75/14
f 9/40/15 22/39/15 40/76/15 35/77/15
f 18/12/1 4/15/1 36/78/1 39/79/1
f 13/31/4 1/30/4 41/80/4 42/81/4
f 31/25/16 10/24/16 37/82/16 47/83/16
f 1/43/2 17/46/2 45/84/2 41/85/2
f 22/39/17 18/86/17 39/87/17 40/76/17
f 2/8/3 14/28/3 43/88/3 34/89/3
f 14/90/18 32/33/18 48/36/18 43/91/18
f 29/58/19 31/25/19 47/83/19 46/92/19
f 25/5/2 2/8/2 34/89/2 33/93/2
f 17/94/20 23/47/20 44/50/20 45/95/20
f 4/15/4 9/17/4 35/96/4 36/78/4
f 69/97/21 70/98/21 91/99/21 90/100/21
f 49/101/2 50/102/2 67/103/2 68/104/2
f 60/105/1 58/106/1 74/107/1 76/108/1
f 64/109/4 49/101/4 68/104/4 80/110/4
f 39/61/22 36/72/22 52/75/22 55/62/22
f 38/65/22 46/111/22 62/112/22 54/66/22
f 35/73/23 40/113/23 56/114/23 51/74/23
f 47/115/23 37/64/23 53/67/23 63/116/23
f 42/117/14 41/118/14 57/119/14 58/106/14
f 43/120/24 48/121/24 64/122/24 59/123/24
f 34/124/13 43/120/13 59/123/13 50/102/13
f 48/125/25 33/126/25 49/101/25 64/109/25
f 44/127/24 42/117/24 58/106/24 60/105/24
f 33/126/26 34/124/26 50/102/26 49/101/26
f 46/111/25 47/128/25 63/129/25 62/112/25
f 41/118/26 45/68/26 61/71/26 57/119/26
f 79/130/27 69/97/27 90/100/27 95/131/27
f 71/132/28 65/133/28 89/134/28 88/135/28
f 70/98/28 78/136/28 94/137/28 91/99/28
f 50/102/3 59/123/3 75/138/3 67/103/3
f 62/112/4 63/129/4 79/139/4 78/136/4
f 57/119/2 61/71/2 77/140/2 73/141/2
f 52/75/4 51/74/4 66/142/4 65/133/4
f 61/71/3 60/70/3 76/143/3 77/140/3
f 53/67/3 54/66/3 70/98/3 69/97/3
f 56/63/3 55/62/3 71/132/3 72/144/3
f 55/62/1 52/75/1 65/133/1 71/132/1
f 54/66/1 62/112/1 78/136/1 70/98/1
f 51/74/2 56/114/2 72/145/2 66/142/2
f 63/116/2 53/67/2 69/97/2 79/130/2
f 58/106/4 57/119/4 73/141/4 74/107/4
f 59/123/1 64/122/1 80/146/1 75/138/1
f 87/147/2 86/148/2 102/149/2 103/150/2
f 86/151/3 88/135/3 104/152/3 102/153/3
f 82/154/4 85/155/4 101/156/4 98/157/4
f 93/158/3 81/159/3 97/160/3 109/161/3
f 75/138/29 80/146/29 96/162/29 84/163/29
f 65/133/30 66/142/30 87/147/30 89/134/30
f 80/110/31 68/104/31 92/164/31 96/165/31
f 68/104/32 67/103/32 83/166/32 92/164/32
f 76/108/29 74/107/29 82/154/29 81/167/29
f 78/136/31 79/139/31 95/168/31 94/137/31
f 73/141/32 77/140/32 93/158/32 85/155/32
f 67/103/21 75/138/21 84/163/21 83/166/21
f 77/140/33 76/143/33 81/159/33 93/158/33
f 74/107/30 73/141/30 85/155/30 82/154/30
f 72/144/33 71/132/33 88/135/33 86/151/33
f 66/142/27 72/145/27 86/148/27 87/147/27
f 103/169/10 102/170/10 104/171/10 105/172/10
f 107/173/10 110/174/10 111/175/10 106/176/10
f 101/177/10 109/178/10 97/179/10 98/180/10
f 108/181/10 99/182/10 100/183/10 112/184/10
f 91/99/1 94/137/1 110/185/1 107/186/1
f 88/135/1 89/134/1 105/187/1 104/152/1
f 95/131/2 90/100/2 106/188/2 111/189/2
f 90/100/3 91/99/3 107/186/3 106/188/3
f 84/163/1 96/162/1 112/190/1 100/191/1
f 89/134/4 87/147/4 103/150/4 105/187/4
f 96/165/4 92/164/4 108/192/4 112/193/4
f 92/164/2 83/166/2 99/194/2 108/192/2
f 81/167/1 82/154/1 98/157/1 97/195/1
f 94/137/4 95/168/4 111/196/4 110/185/4
f 85/155/2 93/158/2 109/161/2 101/156/2
f 83/166/3 84/163/3 100/191/3 99/194/3
f 124/53/10 32/33/10 119/22/10 130/54/10
f 13/48/34 23/47/34 117/38/34 113/37/34
f 32/33/35 14/90/35 114/23/35 119/22/35
f 14/28/3 16/27/3 116/21/3 114/20/3
f 15/32/4 13/31/4 113/19/4 115/18/4
f 23/47/10 124/53/10 130/54/10 117/38/10
f 22/39/36 123/55/36 121/59/36 18/86/36
f 17/46/2 19/45/2 126/57/2 125/56/2
f 117/38/10 130/54/10 123/55/10 22/39/10
f 17/94/37 125/52/37 124/53/37 23/47/37
f 29/2/1 30/51/1 122/42/1 121/41/1
usemtl Material_plateau-d-echiquier-et-de-damier-en-bois-d-erable.jpg
f 27/197/38 30/198/38 7/199/38 12/200/38
f 120/201/38 27/197/38 12/200/38 116/202/38
f 26/203/38 28/204/38 16/205/38 6/206/38
f 5/207/38 15/208/38 24/209/38 19/210/38
f 115/211/38 11/212/38 21/213/38 118/214/38
f 11/212/38 8/215/38 20/216/38 21/213/38
f 126/217/38 128/218/38 28/204/38 26/203/38
f 129/219/38 127/220/38 27/197/38 120/201/38
f 127/220/38 122/221/38 30/198/38 27/197/38
f 128/218/38 129/219/38 120/201/38 28/204/38
f 15/208/38 115/211/38 118/214/38 24/209/38
f 28/204/38 120/201/38 116/202/38 16/205/38
f 24/209/38 118/214/38 129/219/38 128/218/38
f 21/213/38 20/216/38 122/221/38 127/220/38
f 118/214/38 21/213/38 127/220/38 129/219/38
f 19/210/38 24/209/38 128/218/38 126/217/38
